<?xml version="1.0" encoding="utf-8"?>
<!-- Generator: Adobe Illustrator 25.2.1, SVG Export Plug-In . SVG Version: 6.00 Build 0)  -->
<svg version="1.1" id="Layer_1" xmlns="http://www.w3.org/2000/svg" xmlns:xlink="http://www.w3.org/1999/xlink" x="0px" y="0px"
	 viewBox="0 0 3354.1 713.5" style="enable-background:new 0 0 3354.1 713.5;" xml:space="preserve">
<style type="text/css">
	.st0{fill:#FF6820;}
	.st1{fill:#3C3CAF;}
	.st2{fill:#00A651;}
	.st3{fill:#939598;}
</style>
<g>
	<path class="st0" d="M119.5,328.2H69.1v-125c2.2-0.4,5.6-1,10.1-1.7c4.5-0.7,9-1,13.4-1c9.5,0,16.3,1.7,20.5,5
		c4.2,3.3,6.3,9.6,6.3,18.9V328.2z M69.1,264.6h50.4v139.9c-2,0.7-5.2,1.3-9.6,1.8c-4.4,0.5-8.9,0.8-13.6,0.8c-9.9,0-17-1.8-21-5.3
		c-4.1-3.5-6.1-9.7-6.1-18.6V264.6z"/>
	<path class="st0" d="M310.4,301.7v31.2H261v-29.5c0-8.2-2.4-14.2-7.1-18.1c-4.8-3.9-11-5.8-18.7-5.8c-5.5,0-10.6,0.7-15.2,2.2
		c-4.6,1.4-8.8,3.1-12.6,5.1v46.1h-49.1v-51.7c0-5.5,1.2-10.1,3.5-13.8c2.3-3.6,5.7-6.9,10.1-9.8c7.1-4.9,16.1-8.9,27.2-12.1
		c11-3.2,23.2-4.8,36.5-4.8c23.9,0,42.3,5.3,55.3,15.7C303.9,267,310.4,282.1,310.4,301.7z M158.3,317.6h49.1v86.8
		c-2.2,0.7-5.3,1.3-9.3,1.8c-4,0.5-8.3,0.8-12.9,0.8c-9.3,0-16.1-1.7-20.4-5s-6.5-9.3-6.5-17.9V317.6z M261,317.6h49.4v86.8
		c-2.2,0.7-5.3,1.3-9.3,1.8c-4,0.5-8.3,0.8-12.9,0.8c-9.3,0-16.1-1.7-20.5-5c-4.4-3.3-6.6-9.3-6.6-17.9V317.6z"/>
	<path class="st0" d="M447.6,365.4v-99.8h49.1v106.1c0,5.3-1.1,9.8-3.3,13.4c-2.2,3.6-5.7,6.9-10.6,9.8c-6,4-13.8,7.5-23.4,10.4
		c-9.6,3-20.7,4.5-33.3,4.5c-18.3,0-34.2-3.1-47.6-9.3c-13.4-6.2-23.6-15.5-30.8-28c-7.2-12.5-10.8-28-10.8-46.6
		c0-19.4,3.7-35.4,11.1-47.9c7.4-12.5,17.4-21.8,30-28c12.6-6.2,26.5-9.3,41.8-9.3c8,0,15,0.9,21.2,2.7c6.2,1.8,11.3,3.9,15.2,6.3
		v40.4c-3.1-2.7-7.2-5.1-12.3-7.3c-5.1-2.2-10.9-3.3-17.6-3.3c-7.7,0-14.6,1.7-20.5,5c-6,3.3-10.6,8.4-13.9,15.2
		c-3.3,6.9-5,15.6-5,26.2c0,15.5,3.5,26.8,10.4,34.1c7,7.3,16.4,10.9,28.3,10.9c4.9,0,9.2-0.6,12.9-1.8
		C442.4,368,445.4,366.7,447.6,365.4z M496.7,275.2l-49.1,0.3V189c2-0.7,5-1.3,8.9-2c4-0.7,8.3-1,12.9-1c9.7,0,16.7,1.7,20.9,5
		c4.2,3.3,6.3,9.4,6.3,18.2V275.2z"/>
	<path class="st0" d="M529.8,200c0-7.5,2.6-13.8,7.8-18.9c5.2-5.1,11.8-7.6,19.7-7.6c8.2,0,14.8,2.5,19.9,7.6
		c5.1,5.1,7.6,11.4,7.6,18.9c0,7.3-2.5,13.6-7.6,18.9c-5.1,5.3-11.7,8-19.9,8c-8,0-14.5-2.7-19.7-8
		C532.4,213.6,529.8,207.3,529.8,200z M581.9,342.8h-49.1v-95.1c2-0.7,5-1.3,9.1-2c4.1-0.7,8.5-1,13.1-1c9.5,0,16.3,1.6,20.5,4.8
		c4.2,3.2,6.3,9.3,6.3,18.4V342.8z M532.8,317.3h49.1v87.2c-2,0.7-5,1.3-8.9,1.8c-4,0.5-8.3,0.8-12.9,0.8c-9.5,0-16.4-1.7-20.7-5
		s-6.5-9.3-6.5-17.9V317.3z"/>
	<path class="st0" d="M680.6,240.7c23,0,41.3,4.8,55,14.4c13.7,9.6,20.5,24.5,20.5,44.6V375c0,5.5-1.4,10-4.3,13.4
		c-2.9,3.4-6.5,6.4-10.9,8.8c-6.6,4-14.9,7.1-24.7,9.4c-9.8,2.3-21,3.5-33.6,3.5c-22.5,0-40.5-4.4-53.9-13.3
		c-13.4-8.8-20.1-22-20.1-39.4c0-15,4.6-26.6,13.9-34.6c9.3-8.1,23.1-13,41.4-14.7l44.1-4.6v-4c0-7.5-2.9-12.9-8.8-16.2
		c-5.9-3.3-14.2-5-25-5c-8.4,0-16.6,1-24.7,3c-8.1,2-15.3,4.3-21.7,7c-2.7-1.8-4.9-4.5-6.8-8.1c-1.9-3.6-2.8-7.5-2.8-11.4
		c0-9.3,5.1-16,15.2-20.2c6.4-2.7,13.9-4.6,22.4-5.8C664.4,241.4,672.7,240.7,680.6,240.7z M682.6,373.3c5.1,0,10.1-0.5,15.1-1.5
		c5-1,8.6-2.2,10.8-3.5v-31.8l-27.8,2.7c-7.5,0.4-13.5,2-17.9,4.6c-4.4,2.7-6.6,6.6-6.6,11.9c0,5.3,2.1,9.6,6.3,12.8
		C666.6,371.7,673.3,373.3,682.6,373.3z"/>
	<path class="st1" d="M839.4,342.8h-49.1V189c2-0.7,5-1.3,8.9-2c4-0.7,8.3-1,12.9-1c9.5,0,16.4,1.7,20.7,5c4.3,3.3,6.5,9.4,6.5,18.2
		V342.8z M790.3,317.3h49.1v87.2c-2.2,0.7-5.3,1.3-9.3,1.8c-4,0.5-8.3,0.8-12.9,0.8c-9.3,0-16.1-1.7-20.4-5s-6.5-9.3-6.5-17.9V317.3
		z M942.4,337.2h-49.4v-29.5c0-10.2-2.6-17.4-7.8-21.7c-5.2-4.3-11.8-6.5-19.7-6.5c-7.1,0-13.4,1.3-19.1,4s-10.4,5.6-14.4,8.9
		l-1.3-39.8c5.1-2.9,11.4-5.6,18.9-8.1c7.5-2.5,15.8-3.8,24.9-3.8c21,0,37.6,5.4,49.7,16.1c12.1,10.7,18.2,26.8,18.2,48.2V337.2z
		 M893.1,317.3h49.4v87.2c-2.2,0.7-5.3,1.3-9.3,1.8c-4,0.5-8.3,0.8-12.9,0.8c-9.5,0-16.4-1.7-20.7-5s-6.5-9.3-6.5-17.9V317.3z"/>
	<path class="st1" d="M974.9,200c0-7.5,2.6-13.8,7.8-18.9c5.2-5.1,11.8-7.6,19.7-7.6c8.2,0,14.8,2.5,19.9,7.6
		c5.1,5.1,7.6,11.4,7.6,18.9c0,7.3-2.5,13.6-7.6,18.9c-5.1,5.3-11.7,8-19.9,8c-8,0-14.5-2.7-19.7-8
		C977.5,213.6,974.9,207.3,974.9,200z M1027,342.8h-49.1v-95.1c2-0.7,5-1.3,9.1-2c4.1-0.7,8.5-1,13.1-1c9.5,0,16.3,1.6,20.5,4.8
		c4.2,3.2,6.3,9.3,6.3,18.4V342.8z M977.9,317.3h49.1v87.2c-2,0.7-5,1.3-8.9,1.8c-4,0.5-8.3,0.8-12.9,0.8c-9.5,0-16.4-1.7-20.7-5
		s-6.5-9.3-6.5-17.9V317.3z"/>
	<path class="st1" d="M1191.3,358.4c0,16.1-6.1,28.8-18.2,37.9c-12.2,9.2-29.8,13.8-53,13.8c-18.1,0-33-2.7-44.7-8
		c-11.7-5.3-17.6-13.1-17.6-23.5c0-4.6,1-8.7,3-12.1c2-3.4,4.5-6.1,7.6-8.1c6.2,3.5,13.4,6.8,21.7,9.8c8.3,3,17.7,4.5,28.3,4.5
		c16.1,0,24.2-4.6,24.2-13.9c0-4-1.4-7.1-4.3-9.4c-2.9-2.3-7.6-4-14.3-5.1l-13.9-3.3c-17.7-3.8-30.9-9.6-39.6-17.4
		c-8.7-7.8-13.1-18.6-13.1-32.3c0-15.5,6.2-27.8,18.7-37c12.5-9.2,29.3-13.8,50.5-13.8c10.6,0,20.3,1.1,29,3.1
		c8.7,2.1,15.6,5.3,20.7,9.6c5.1,4.3,7.6,9.7,7.6,16.1c0,4.4-0.9,8.3-2.7,11.6c-1.8,3.3-4.1,6.1-7,8.3c-2.4-1.5-6.1-3.2-11.1-5
		c-5-1.8-10.4-3.2-16.2-4.3c-5.9-1.1-11.3-1.7-16.4-1.7c-8,0-14.1,1.1-18.6,3.1c-4.4,2.1-6.6,5.4-6.6,9.8c0,2.9,1.3,5.4,3.8,7.5
		c2.5,2.1,7,3.8,13.4,5.1l13.3,3.3c19.7,4.4,33.8,10.8,42.4,19.1C1187,334.4,1191.3,345.1,1191.3,358.4z"/>
	<path class="st1" d="M1266.6,325.6h-48.7v-119c2.2-0.7,5.3-1.4,9.3-2.2c4-0.8,8.2-1.2,12.6-1.2c9.5,0,16.3,1.7,20.5,5
		c4.2,3.3,6.3,9.4,6.3,18.2V325.6z M1217.9,317.3h48.7v35.5c0,6.2,2,10.7,6,13.6c4,2.9,9.6,4.3,16.9,4.3c3.3,0,6.9-0.4,10.8-1.2
		c3.9-0.8,7.1-1.7,9.8-2.8c1.8,2,3.4,4.4,4.8,7.3c1.4,2.9,2.2,6.2,2.2,9.9c0,7.5-3.1,13.7-9.3,18.6c-6.2,4.9-16.6,7.3-31.2,7.3
		c-18.6,0-33-4.2-43.3-12.6c-10.3-8.4-15.4-22.1-15.4-41.1V317.3z M1249,287.1v-37.8h63.6c1.1,1.8,2.2,4.3,3.3,7.6
		c1.1,3.3,1.7,7,1.7,10.9c0,6.6-1.5,11.5-4.5,14.6c-3,3.1-7,4.6-12.1,4.6H1249z"/>
	<path class="st1" d="M1501.2,325.3c0,17.2-3.5,32.2-10.4,44.9c-7,12.7-16.7,22.5-29.3,29.3c-12.6,6.8-27.4,10.3-44.4,10.3
		c-16.8,0-31.5-3.4-44.2-10.1c-12.7-6.7-22.5-16.5-29.5-29.2c-7-12.7-10.4-27.8-10.4-45.2c0-17.5,3.5-32.4,10.6-44.9
		c7.1-12.5,17-22.2,29.7-29.2c12.7-7,27.3-10.4,43.9-10.4c16.8,0,31.5,3.5,44.1,10.4s22.4,16.8,29.5,29.5
		C1497.7,293.4,1501.2,308.2,1501.2,325.3z M1417.1,279.5c-10.4,0-18.6,4-24.7,11.9c-6.1,8-9.1,19.2-9.1,33.8c0,14.8,3,26.1,8.9,34
		c6,7.8,14.3,11.8,24.9,11.8c10.6,0,18.9-4,24.9-11.9c6-8,8.9-19.2,8.9-33.8c0-14.4-3-25.6-8.9-33.6
		C1435.9,283.6,1427.7,279.5,1417.1,279.5z"/>
	<path class="st1" d="M1576.8,288.5v41.4h-49.1v-47.4c0-6.2,1.5-11.4,4.5-15.7s7.1-8.1,12.4-11.4c7.3-4.4,16.1-7.9,26.3-10.4
		c10.3-2.5,21-3.8,32.3-3.8c22.5,0,33.8,7.5,33.8,22.5c0,3.5-0.5,6.9-1.5,9.9c-1,3.1-2.2,5.7-3.5,8c-2.2-0.4-4.9-0.8-8.1-1.2
		c-3.2-0.3-6.7-0.5-10.4-0.5c-6.6,0-13.3,0.8-19.9,2.3C1587.1,283.7,1581.4,285.8,1576.8,288.5z M1527.7,317.3l49.1,1v86.2
		c-2.2,0.7-5.3,1.3-9.3,1.8c-4,0.5-8.3,0.8-12.9,0.8c-9.3,0-16.1-1.7-20.4-5s-6.5-9.3-6.5-17.9V317.3z"/>
	<path class="st1" d="M1689.1,365.4c-3.5-7.3-7.3-16.1-11.4-26.5c-4.1-10.4-8.3-22.6-12.8-36.8c-4.4-14.1-9.2-30.5-14.3-49.1
		c2.9-2.9,6.6-5.4,11.1-7.5c4.5-2.1,9.4-3.1,14.7-3.1c6.8,0,12.5,1.4,16.9,4.3c4.4,2.9,7.7,8.3,9.9,16.2
		c5.1,16.1,10.2,32.1,15.2,48.1c5.1,15.9,10.3,31.9,15.6,48.1h1.3c3.8-9.9,7.6-21.2,11.4-33.8c3.9-12.6,7.5-25.6,10.8-38.9
		c3.3-13.4,6.2-26.2,8.6-38.6c3.1-1.5,6.4-2.8,9.9-3.8c3.5-1,7.2-1.5,10.9-1.5c6.8,0,12.8,1.5,17.7,4.5s7.5,8,7.5,15.1
		c0,6.2-0.9,13.8-2.8,22.9c-1.9,9.1-4.4,18.8-7.5,29.3c-3.1,10.5-6.7,21.2-10.9,32.1c-4.2,10.9-8.6,21.5-13.1,31.7
		c-4.5,10.2-9.1,19.3-13.8,27.5c-11.9,20.8-22.9,36.3-33,46.6c-10.1,10.3-20.1,15.4-30,15.4c-8,0-14.5-2.4-19.7-7.3
		c-5.2-4.9-8.3-11.1-9.4-18.6c4.9-4,9.8-8.6,14.9-13.8c5.1-5.2,9.9-10.7,14.6-16.6c4.6-5.9,8.7-11.7,12.3-17.4
		c-3.8-1.1-7.6-3.5-11.6-7.3C1698.4,382.8,1694,375.8,1689.1,365.4z"/>
	<path class="st2" d="M1901.6,398.5c-13,0-25.1-2.5-36.3-7.5c-11.2-5-20.1-13.3-26.8-24.9c-6.7-11.6-10.1-26.8-10.1-45.6
		c0-17.5,3.5-32.1,10.4-43.9c7-11.8,16.7-20.8,29.3-26.8c12.6-6.1,27.2-9.1,43.7-9.1c11.9,0,23,1.6,33.3,4.8
		c10.3,3.2,18.3,6.7,24,10.4c4,2.7,7.2,5.8,9.6,9.4c2.4,3.6,3.6,8.2,3.6,13.8v104.1h-47.4v-98.4c-2.4-1.3-5.4-2.5-8.8-3.6
		c-3.4-1.1-7.7-1.7-12.8-1.7c-10.6,0-19.3,3.3-26,9.9c-6.7,6.6-10.1,17-10.1,31.2c0,15.5,3.1,26.1,9.4,32c6.3,5.9,14.2,8.8,23.7,8.8
		c7.3,0,13.4-1.3,18.2-3.8c4.9-2.5,9.1-5.4,12.6-8.5l1.3,39.1c-4.6,2.9-10.3,5.3-16.9,7.3C1919.2,397.5,1911.1,398.5,1901.6,398.5z
		 M1936.1,403.1v-30.8h46.4v32.1c0,15.5-3.6,28.1-10.8,37.8c-7.2,9.7-16.9,16.9-29.2,21.5c-12.3,4.6-26,7-41.3,7
		c-11.5,0-21.7-1-30.7-3c-8.9-2-15.7-4.5-20.4-7.6c-7.5-4.9-11.3-11.7-11.3-20.5c0-4.6,0.9-8.8,2.8-12.4c1.9-3.6,4.1-6.4,6.8-8.1
		c6,3.5,13,6.6,21.2,9.1c8.2,2.5,16.8,3.8,25.9,3.8c12.4,0,22.2-2.3,29.5-6.8C1932.4,420.7,1936.1,413.3,1936.1,403.1z"/>
	<path class="st2" d="M2065.7,333.9h-49.1v-87.5c2-0.7,5-1.3,8.9-2c4-0.7,8.3-1,12.9-1c9.5,0,16.4,1.6,20.7,4.8
		c4.3,3.2,6.5,9.3,6.5,18.4V333.9z M2016.6,342.8V319h49.1v23.5c0,10.2,2.6,17.5,7.8,21.9c5.2,4.4,12.5,6.6,22,6.6
		c6,0,10.9-0.5,14.9-1.7c4-1.1,7-2.2,8.9-3.3V319h49.4v53c0,5.3-1.1,9.8-3.1,13.6c-2.1,3.8-5.5,7.1-10.1,9.9
		c-7.1,4.4-15.7,7.9-26,10.4c-10.3,2.5-21.7,3.8-34.3,3.8c-15.7,0-29.4-2.3-41.3-7c-11.8-4.6-21-11.9-27.5-21.7
		C2019.9,371.3,2016.6,358.5,2016.6,342.8z M2168.7,333.9h-49.4v-87.5c2.2-0.7,5.3-1.3,9.3-2c4-0.7,8.3-1,12.9-1
		c9.5,0,16.4,1.6,20.7,4.8c4.3,3.2,6.5,9.3,6.5,18.4V333.9z"/>
	<path class="st2" d="M2200.9,200c0-7.5,2.6-13.8,7.8-18.9c5.2-5.1,11.8-7.6,19.7-7.6c8.2,0,14.8,2.5,19.9,7.6
		c5.1,5.1,7.6,11.4,7.6,18.9c0,7.3-2.5,13.6-7.6,18.9c-5.1,5.3-11.7,8-19.9,8c-8,0-14.5-2.7-19.7-8
		C2203.5,213.6,2200.9,207.3,2200.9,200z M2252.9,342.8h-49.1v-95.1c2-0.7,5-1.3,9.1-2c4.1-0.7,8.5-1,13.1-1
		c9.5,0,16.3,1.6,20.5,4.8c4.2,3.2,6.3,9.3,6.3,18.4V342.8z M2203.9,317.3h49.1v87.2c-2,0.7-5,1.3-8.9,1.8c-4,0.5-8.3,0.8-12.9,0.8
		c-9.5,0-16.4-1.7-20.7-5s-6.5-9.3-6.5-17.9V317.3z"/>
	<path class="st2" d="M2391.4,365.4v-99.8h49.1v106.1c0,5.3-1.1,9.8-3.3,13.4c-2.2,3.6-5.7,6.9-10.6,9.8c-6,4-13.8,7.5-23.4,10.4
		c-9.6,3-20.7,4.5-33.3,4.5c-18.3,0-34.2-3.1-47.6-9.3c-13.4-6.2-23.6-15.5-30.8-28c-7.2-12.5-10.8-28-10.8-46.6
		c0-19.4,3.7-35.4,11.1-47.9c7.4-12.5,17.4-21.8,30-28c12.6-6.2,26.5-9.3,41.8-9.3c8,0,15,0.9,21.2,2.7c6.2,1.8,11.3,3.9,15.2,6.3
		v40.4c-3.1-2.7-7.2-5.1-12.3-7.3c-5.1-2.2-10.9-3.3-17.6-3.3c-7.7,0-14.6,1.7-20.5,5c-6,3.3-10.6,8.4-13.9,15.2
		c-3.3,6.9-5,15.6-5,26.2c0,15.5,3.5,26.8,10.4,34.1c7,7.3,16.4,10.9,28.3,10.9c4.9,0,9.2-0.6,12.9-1.8
		C2386.2,368,2389.2,366.7,2391.4,365.4z M2440.5,275.2l-49.1,0.3V189c2-0.7,5-1.3,8.9-2c4-0.7,8.3-1,12.9-1c9.7,0,16.7,1.7,20.9,5
		c4.2,3.3,6.3,9.4,6.3,18.2V275.2z"/>
	<path class="st2" d="M2498.2,348.5l-2-33.1l82.2-12.9c-0.4-6.2-3.1-11.9-8-17.2c-4.9-5.3-12-8-21.5-8c-9.9,0-18.2,3.4-24.9,10.1
		c-6.6,6.7-10.2,16.3-10.6,28.7l1.7,22.9c2,12.2,7.2,20.8,15.6,26c8.4,5.2,18.3,7.8,29.8,7.8c9.3,0,18-1.3,26.2-4
		c8.2-2.7,14.8-5.4,19.9-8.3c3.3,2,6,4.8,8.1,8.3c2.1,3.5,3.1,7.3,3.1,11.3c0,6.6-2.6,12.2-7.8,16.6c-5.2,4.4-12.4,7.7-21.5,9.9
		c-9.2,2.2-19.6,3.3-31.3,3.3c-17,0-32.3-3.2-45.9-9.6c-13.6-6.4-24.3-16-32-28.8c-7.7-12.8-11.6-28.8-11.6-48.1
		c0-14.1,2.3-26.4,6.8-36.8c4.5-10.4,10.6-18.9,18.2-25.7c7.6-6.7,16.2-11.8,25.9-15.1c9.6-3.3,19.6-5,30-5c15.2,0,28.6,3,39.9,9.1
		c11.4,6.1,20.3,14.3,26.7,24.7c6.4,10.4,9.6,22.4,9.6,36.1c0,6.9-1.9,12-5.6,15.6c-3.8,3.5-8.9,5.7-15.6,6.6L2498.2,348.5z"/>
	<path class="st3" d="M2638.4,380.9c0-8.2,2.6-15.1,7.8-20.7c5.2-5.6,12.1-8.5,20.7-8.5c8.8,0,15.9,2.8,21,8.5
		c5.2,5.6,7.8,12.5,7.8,20.7c0,8.2-2.6,15.1-7.8,20.7c-5.2,5.6-12.2,8.5-21,8.5c-8.6,0-15.5-2.8-20.7-8.5
		C2641,396,2638.4,389.1,2638.4,380.9z"/>
	<path class="st3" d="M2800.1,279.9c-11.9,0-22.2,3.9-30.7,11.8c-8.5,7.8-12.8,19.3-12.8,34.3c0,14.8,4.1,26,12.3,33.5
		c8.2,7.5,18.4,11.3,30.8,11.3c7.3,0,13.6-0.9,19.1-2.8c5.4-1.9,10.1-3.9,14.1-6.1c3.8,2.7,6.6,5.6,8.6,8.8c2,3.2,3,7.1,3,11.8
		c0,8.2-4.4,14.8-13.3,19.9c-8.8,5.1-21.1,7.6-36.8,7.6c-17.5,0-32.8-3.1-46.1-9.4c-13.3-6.3-23.5-15.7-30.8-28.3
		c-7.3-12.6-10.9-27.9-10.9-46.1c0-19.2,4-35.1,11.9-47.6c8-12.5,18.5-21.9,31.7-28.2c13.1-6.3,27.5-9.4,42.9-9.4
		c15.2,0,27.2,2.8,36,8.3c8.7,5.5,13.1,12.4,13.1,20.5c0,4-0.9,7.6-2.8,10.8c-1.9,3.2-4,6-6.5,8.5c-4.2-2.2-9-4.3-14.4-6.1
		C2813.1,280.8,2806.9,279.9,2800.1,279.9z"/>
	<path class="st3" d="M3027.1,325.3c0,17.2-3.5,32.2-10.4,44.9c-7,12.7-16.7,22.5-29.3,29.3c-12.6,6.8-27.4,10.3-44.4,10.3
		c-16.8,0-31.5-3.4-44.2-10.1c-12.7-6.7-22.5-16.5-29.5-29.2c-7-12.7-10.4-27.8-10.4-45.2c0-17.5,3.5-32.4,10.6-44.9
		c7.1-12.5,17-22.2,29.7-29.2c12.7-7,27.3-10.4,43.9-10.4c16.8,0,31.5,3.5,44.1,10.4s22.4,16.8,29.5,29.5
		C3023.6,293.4,3027.1,308.2,3027.1,325.3z M2942.9,279.5c-10.4,0-18.6,4-24.7,11.9c-6.1,8-9.1,19.2-9.1,33.8c0,14.8,3,26.1,8.9,34
		c6,7.8,14.3,11.8,24.9,11.8c10.6,0,18.9-4,24.9-11.9c6-8,8.9-19.2,8.9-33.8c0-14.4-3-25.6-8.9-33.6
		C2961.8,283.6,2953.5,279.5,2942.9,279.5z"/>
	<path class="st3" d="M3198.1,295.1v37.8h-49.4v-31.5c0-7.5-2.2-13-6.6-16.6c-4.4-3.5-9.9-5.3-16.6-5.3c-4.9,0-9.2,0.7-13.1,2.2
		c-3.9,1.4-7.1,2.9-9.8,4.5v46.7h-49.1v-51.7c0-5.5,1.2-10.1,3.5-13.8c2.3-3.6,5.7-6.9,10.1-9.8c7.3-5.1,16.2-9.2,26.8-12.3
		c10.6-3.1,21.7-4.6,33.1-4.6c10.6,0,20.5,1.7,29.8,5s17.3,8.4,24.2,15.2c1.8,1.3,3.5,2.7,5.1,4.1c1.7,1.4,2.9,3,3.8,4.8
		c2.2,3.5,4.1,7.5,5.6,11.9C3197.4,286.3,3198.1,290.7,3198.1,295.1z M3053.6,317.6h49.1v86.8c-2.2,0.7-5.3,1.3-9.3,1.8
		c-4,0.5-8.3,0.8-12.9,0.8c-9.3,0-16.1-1.7-20.4-5s-6.5-9.3-6.5-17.9V317.6z M3148.8,317.6h49.4v86.8c-2.2,0.7-5.3,1.3-9.3,1.8
		c-4,0.5-8.3,0.8-12.9,0.8c-9.5,0-16.4-1.7-20.7-5s-6.5-9.3-6.5-17.9V317.6z M3293.3,300.1v32.8h-49.1v-31.5c0-7.5-2.1-13-6.3-16.6
		c-4.2-3.5-9.7-5.3-16.6-5.3c-5.1,0-9.9,1.1-14.4,3.1c-4.5,2.1-8.5,4.6-11.8,7.5l-25.9-28.5c7.3-5.7,15.6-10.7,24.9-14.7
		c9.3-4.1,20.7-6.1,34.1-6.1c11.5,0,22.2,2,32.1,6c9.9,4,17.9,10.3,23.9,18.9C3290.3,274.2,3293.3,285.7,3293.3,300.1z
		 M3244.2,317.6h49.1v86.8c-2,0.7-5,1.3-8.9,1.8c-4,0.5-8.3,0.8-12.9,0.8c-9.5,0-16.4-1.7-20.7-5s-6.5-9.3-6.5-17.9V317.6z"/>
</g>
</svg>
